<svg width="12" height="12" viewBox="0 0 12 12" fill="none" xmlns="http://www.w3.org/2000/svg">
<g clip-path="url(#clip0_469_1268)">
<path d="M2.98736 11.2987L2.95876 11.35H2.9H1.575C1.20952 11.35 0.874293 11.3311 0.629016 11.3024C0.50696 11.2882 0.404039 11.2711 0.329904 11.2519C0.293614 11.2424 0.258904 11.2311 0.231215 11.2168C0.217582 11.2097 0.200445 11.1993 0.185461 11.184C0.170438 11.1687 0.15 11.1402 0.15 11.1C0.15 11.0793 0.156298 11.0602 0.158605 11.0532C0.158647 11.053 0.158688 11.0529 0.158728 11.0528C0.162308 11.0419 0.167045 11.0297 0.17235 11.017C0.183052 10.9912 0.198369 10.9576 0.217584 10.9174C0.256155 10.8367 0.312581 10.7247 0.384602 10.5853C0.528762 10.3064 0.736907 9.91517 0.99324 9.44002C1.50595 8.48963 2.21233 7.2019 2.98734 5.80187C3.75011 4.40138 4.46297 3.13199 4.99468 2.21244C5.26049 1.75274 5.48135 1.37992 5.64068 1.12171C5.72022 0.992792 5.78509 0.891368 5.83285 0.821686C5.85653 0.787135 5.87725 0.758561 5.89416 0.737897C5.90237 0.727867 5.91171 0.717179 5.92149 0.70815C5.92627 0.703737 5.93356 0.697455 5.94282 0.691705C5.94954 0.687531 5.97055 0.674999 6 0.674999C6.03179 0.674999 6.05403 0.689672 6.05986 0.693543C6.06893 0.699572 6.07608 0.706096 6.08074 0.710634C6.09035 0.719992 6.09975 0.731182 6.10823 0.741935C6.12568 0.764071 6.14738 0.794887 6.17243 0.832355C6.2229 0.907851 6.29164 1.01741 6.37557 1.15541C6.54366 1.43175 6.77518 1.8262 7.04834 2.29963C7.59477 3.24671 8.3091 4.51202 9.01861 5.78571C9.72813 7.0594 10.4331 8.3419 10.9607 9.32335C11.2245 9.81399 11.4443 10.2299 11.5982 10.532C11.6751 10.6829 11.736 10.8063 11.7778 10.8967C11.7987 10.9418 11.8154 10.9799 11.8271 11.0097C11.8329 11.0246 11.838 11.0387 11.8417 11.0513C11.8447 11.0611 11.85 11.0799 11.85 11.1C11.85 11.1402 11.8296 11.1687 11.8145 11.184C11.7996 11.1993 11.7824 11.2097 11.7688 11.2168C11.7411 11.2311 11.7064 11.2424 11.6701 11.2519C11.596 11.2711 11.493 11.2882 11.371 11.3024C11.1257 11.3311 10.7905 11.35 10.425 11.35H9.075H9.01579L8.98732 11.2981L7.71254 8.97349C7.71251 8.97343 7.71247 8.97336 7.71244 8.9733C7.01519 7.71577 6.64091 7.03772 6.50627 6.67546C6.47225 6.58396 6.45073 6.50559 6.445 6.43922C6.43923 6.37237 6.44859 6.30579 6.49044 6.2517C6.53182 6.19822 6.59123 6.17487 6.64539 6.16351C6.69936 6.15219 6.7618 6.15 6.825 6.15C6.85714 6.15 6.88578 6.16044 6.90756 6.17102C6.93034 6.1821 6.9529 6.19697 6.97466 6.21353C7.01818 6.24664 7.06676 6.29288 7.11876 6.34852C7.2232 6.46026 7.35018 6.61947 7.49039 6.81325C7.77118 7.20132 8.11072 7.73591 8.43728 8.32618C8.86191 9.07552 9.19 9.60102 9.45378 9.93841C9.58575 10.1072 9.69851 10.2248 9.79599 10.2995C9.8938 10.3745 9.968 10.4 10.025 10.4C10.1445 10.4 10.2547 10.3879 10.332 10.3686C10.3571 10.3623 10.3763 10.3559 10.3902 10.35C10.3852 10.3365 10.3786 10.32 10.3701 10.3002C10.3465 10.2448 10.3111 10.1699 10.2651 10.0774C10.1734 9.89269 10.0416 9.64285 9.88243 9.34967C9.56422 8.76355 9.13811 8.00731 8.7071 7.2593C8.2761 6.51129 7.84062 5.77223 7.50372 5.22047C7.33517 4.94443 7.19181 4.71613 7.08624 4.55725C7.03941 4.48676 7.0008 4.43113 6.97116 4.39143C6.93676 4.43495 6.89108 4.49877 6.83485 4.5821C6.71629 4.75782 6.55555 5.01323 6.36365 5.32995C5.98008 5.963 5.47444 6.83691 4.93731 7.79876L2.98736 11.2987ZM10.4147 10.3367C10.4147 10.3367 10.4141 10.3371 10.4133 10.3379C10.4144 10.3371 10.4148 10.3367 10.4147 10.3367ZM2.71153 9.64308C3.10221 9.07877 3.63763 8.17635 4.38758 6.82644C4.96186 5.79023 5.44822 4.8486 5.78135 4.13877C5.94804 3.78358 6.07558 3.48808 6.15657 3.26852C6.19715 3.1585 6.22519 3.06985 6.24079 3.00348C6.2486 2.97025 6.25278 2.94476 6.25425 2.92625C6.25497 2.91732 6.25492 2.91152 6.25477 2.90823C6.2081 2.81631 6.15786 2.73419 6.1101 2.67582C6.08676 2.64729 6.06617 2.62712 6.04918 2.61434C6.04236 2.6229 6.0345 2.63312 6.02557 2.64512C5.98599 2.6983 5.93164 2.77799 5.86412 2.88167C5.72938 3.08856 5.5458 3.38534 5.32977 3.74345C4.89787 4.45938 4.33811 5.41728 3.78362 6.38412C3.22914 7.35095 2.68028 8.3261 2.27017 9.07647C2.06506 9.45177 1.89499 9.77022 1.77636 10.0031C1.71697 10.1196 1.67099 10.2137 1.64006 10.2823C1.62757 10.31 1.61793 10.3327 1.61097 10.3505C1.62476 10.3562 1.64359 10.3625 1.668 10.3686C1.74532 10.3879 1.85547 10.4 1.975 10.4C2.02099 10.4 2.10241 10.3672 2.23291 10.2413C2.35941 10.1193 2.51594 9.9256 2.71153 9.64308ZM1.58526 10.3367C1.5852 10.3367 1.58562 10.3371 1.58672 10.3379C1.58587 10.3371 1.58532 10.3367 1.58526 10.3367Z" fill="white" stroke="white" stroke-width="0.2"/>
</g>
<defs>
<clipPath id="clip0_469_1268">
<rect width="12" height="12" fill="white"/>
</clipPath>
</defs>
</svg>
