<?xml version="1.0" encoding="utf-8"?>
<svg viewBox="0 0 32 33" fill="none" xmlns="http://www.w3.org/2000/svg">
  <g id="shopping-bag-outline" style="" transform="matrix(0.9999999999999999, 0, 0, 0.9999999999999999, -4.440892098500626e-16, 0)">
    <path id="Vector" d="M10.8751 12.7502V6.5835C10.8751 5.35687 11.3623 4.18048 12.2297 3.31313C13.0971 2.44577 14.2734 1.9585 15.5001 1.9585C16.7267 1.9585 17.9031 2.44577 18.7704 3.31313C19.6378 4.18048 20.1251 5.35687 20.1251 6.5835V12.7502M24.7501 9.66683L26.1638 28.0481C26.1801 28.2599 26.1525 28.4729 26.0827 28.6735C26.0129 28.8742 25.9023 29.0582 25.758 29.2141C25.6137 29.37 25.4387 29.4944 25.244 29.5795C25.0494 29.6646 24.8392 29.7085 24.6267 29.7085H6.37341C6.16095 29.7085 5.95079 29.6646 5.75612 29.5795C5.56144 29.4944 5.38645 29.37 5.24212 29.2141C5.0978 29.0582 4.98725 28.8742 4.91743 28.6735C4.8476 28.4729 4.82001 28.2599 4.83636 28.0481L6.25007 9.66683H24.7501Z" stroke="white" stroke-width="3" stroke-linecap="round" stroke-linejoin="round"/>
  </g>
  <rect x="6.153" y="10.682" width="18.474" height="18.157" style="stroke: rgb(255, 255, 255); stroke-width: 0px; fill: rgb(255, 255, 255);" transform="matrix(0.9999999999999999, 0, 0, 0.9999999999999999, -4.440892098500626e-16, 0)"/>
</svg>