<?xml version="1.0" encoding="utf-8"?>
<svg viewBox="0 0 32 33" fill="none" xmlns="http://www.w3.org/2000/svg">
  <g id="shopping-bag-outline" style="" transform="matrix(1, 0, 0, 1, -4.440892098500626e-16, 2.220446049250313e-16)">
    <path id="Vector" d="M 10.875 12.75 L 10.875 9.667 L 10.875 6.584 C 10.875 5.97 10.997 5.369 11.227 4.814 C 11.457 4.258 11.796 3.747 12.23 3.313 C 12.663 2.879 13.174 2.541 13.73 2.311 C 14.286 2.08 14.887 1.959 15.5 1.959 C 16.113 1.959 16.714 2.08 17.27 2.311 C 17.826 2.541 18.337 2.879 18.77 3.313 C 19.204 3.747 19.543 4.258 19.773 4.814 C 20.003 5.369 20.125 5.97 20.125 6.584 L 20.125 9.667 L 20.125 12.75 M 24.75 9.667 L 25.457 18.857 L 26.164 28.048 C 26.172 28.154 26.169 28.26 26.156 28.365 C 26.142 28.47 26.118 28.573 26.083 28.674 C 26.048 28.774 26.003 28.87 25.948 28.961 C 25.894 29.051 25.83 29.136 25.758 29.214 C 25.686 29.292 25.606 29.362 25.52 29.423 C 25.434 29.485 25.341 29.537 25.244 29.58 C 25.147 29.622 25.046 29.654 24.942 29.676 C 24.839 29.698 24.733 29.709 24.627 29.709 L 15.5 29.709 L 6.373 29.709 C 6.267 29.709 6.162 29.698 6.058 29.676 C 5.955 29.654 5.853 29.622 5.756 29.58 C 5.659 29.537 5.566 29.485 5.48 29.423 C 5.394 29.362 5.314 29.292 5.242 29.214 C 5.17 29.136 5.106 29.051 5.052 28.961 C 4.997 28.87 4.952 28.774 4.917 28.674 C 4.883 28.573 4.858 28.47 4.845 28.365 C 4.831 28.26 4.828 28.154 4.836 28.048 L 5.543 18.857 L 6.25 9.667 L 15.5 9.667 Z" stroke-width="3" stroke-linecap="round" stroke-linejoin="round" style=""/>
    <path d="M 9.375 6.584 C 9.39 5.821 9.569 4.933 9.841 4.24 C 10.139 3.556 10.64 2.803 11.169 2.253 C 11.719 1.723 12.473 1.223 13.156 0.925 C 13.851 0.652 14.739 0.459 15.5 0.459 C 16.261 0.459 17.149 0.652 17.844 0.925 C 18.527 1.223 19.281 1.723 19.831 2.253 C 20.36 2.803 20.861 3.556 21.159 4.24 C 21.431 4.933 21.61 5.821 21.625 6.584 L 21.625 8.167 L 26.139 8.167 L 26.953 18.742 L 27.66 27.935 C 27.67 28.119 27.661 28.387 27.643 28.563 C 27.616 28.739 27.556 28.993 27.499 29.17 C 27.435 29.34 27.325 29.574 27.233 29.735 C 27.135 29.89 26.983 30.098 26.86 30.231 C 26.734 30.368 26.538 30.534 26.393 30.643 C 26.235 30.75 25.999 30.882 25.84 30.956 C 25.672 31.025 25.429 31.102 25.254 31.143 C 25.072 31.178 24.81 31.205 24.627 31.209 L 6.373 31.209 C 6.189 31.205 5.926 31.177 5.745 31.143 C 5.574 31.103 5.319 31.021 5.148 30.951 C 4.989 30.877 4.766 30.75 4.607 30.643 C 4.462 30.534 4.266 30.368 4.14 30.231 C 4.017 30.098 3.865 29.89 3.767 29.735 C 3.675 29.574 3.559 29.323 3.495 29.153 C 3.443 28.989 3.386 28.745 3.357 28.556 C 3.338 28.373 3.331 28.117 3.34 27.933 L 4.047 18.742 L 4.861 8.167 L 9.375 8.167 L 9.375 6.584 Z M 18.625 6.584 C 18.64 6.119 18.575 5.805 18.387 5.388 C 18.225 4.96 18.049 4.692 17.709 4.374 C 17.394 4.035 17.126 3.86 16.697 3.697 C 16.28 3.509 15.965 3.459 15.5 3.459 C 15.035 3.459 14.722 3.508 14.306 3.696 C 13.877 3.859 13.608 4.034 13.292 4.372 C 12.953 4.691 12.775 4.959 12.613 5.387 C 12.425 5.804 12.36 6.119 12.375 6.584 L 12.375 8.167 L 18.625 8.167 L 18.625 6.584 Z" style="fill: rgb(255, 255, 255);"/>
  </g>
</svg>