<svg width="24" height="24" viewBox="0 0 24 24" fill="none" xmlns="http://www.w3.org/2000/svg">
<g id="Favorites icon">
<path id="Vector" d="M18.577 1.5H12.375L16.3214 6.76219L18.577 1.5ZM5.42297 1.5L7.67859 6.76219L11.625 1.5H5.42297ZM12 3.50016L9 7.5H15L12 3.50016ZM19.8258 2.39344L17.6372 7.5H22.875L19.8258 2.39344ZM4.17422 2.39344L1.07812 7.5H6.36281L4.17422 2.39344ZM6.87562 9H1.125L11.5688 22.5H11.5936L6.87562 9ZM17.1244 9L12.4064 22.5H12.4313L22.875 9H17.1244ZM15.4402 9H8.55984L12 18.75L15.4402 9Z" fill="#A20909"/>
</g>
</svg>
