<svg width="24" height="24" viewBox="0 0 24 24" fill="none" xmlns="http://www.w3.org/2000/svg">
<g id="Favorites icon">
<g id="Group 462">
<path id="Vector" d="M2.24993 8.25H21.7499M1.66024 8.82234L11.3985 21.4533C11.4693 21.5455 11.5604 21.6203 11.6646 21.6717C11.7689 21.7232 11.8836 21.7499 11.9999 21.7499C12.1162 21.7499 12.2309 21.7232 12.3352 21.6717C12.4395 21.6203 12.5306 21.5455 12.6013 21.4533L22.3396 8.82234C22.4354 8.69768 22.4909 8.54682 22.4989 8.38983C22.5068 8.23284 22.4668 8.07714 22.3841 7.94344L19.0809 2.61141C19.0129 2.50106 18.9178 2.40993 18.8046 2.34668C18.6915 2.28343 18.5641 2.25015 18.4345 2.25H5.5654C5.43578 2.25015 5.30835 2.28343 5.19522 2.34668C5.08208 2.40993 4.987 2.50106 4.91899 2.61141L1.61571 7.94344C1.53305 8.07714 1.49304 8.23284 1.50099 8.38983C1.50895 8.54682 1.56449 8.69768 1.66024 8.82234Z" stroke="#8A8A8A" stroke-width="1.5" stroke-linecap="round" stroke-linejoin="round"/>
<path id="Vector_2" d="M18.75 3L16.5 8.25M16.5 8.25L12 2.25L7.5 8.25M16.5 8.25L12 21L7.5 8.25M5.25 3L7.5 8.25" stroke="#8A8A8A" stroke-width="1.5" stroke-linecap="round" stroke-linejoin="round"/>
</g>
</g>
</svg>
