<svg width="32" height="32" viewBox="0 0 32 32" fill="none" xmlns="http://www.w3.org/2000/svg">
<g id="Favorites icon">
<g id="Group 462">
<path id="Vector" d="M2.99991 11H28.9999M2.21366 11.7631L15.198 28.6044C15.2924 28.7274 15.4138 28.827 15.5529 28.8956C15.6919 28.9642 15.8449 28.9999 15.9999 28.9999C16.155 28.9999 16.3079 28.9642 16.447 28.8956C16.586 28.827 16.7074 28.7274 16.8018 28.6044L29.7862 11.7631C29.9138 11.5969 29.9879 11.3958 29.9985 11.1864C30.0091 10.9771 29.9557 10.7695 29.8455 10.5913L25.4412 3.48187C25.3505 3.33475 25.2237 3.21325 25.0729 3.12891C24.922 3.04457 24.7521 3.00019 24.5793 3H7.42053C7.24771 3.00019 7.07781 3.04457 6.92696 3.12891C6.77611 3.21325 6.64933 3.33475 6.55866 3.48187L2.15428 10.5913C2.04407 10.7695 1.99072 10.9771 2.00132 11.1864C2.01193 11.3958 2.08599 11.5969 2.21366 11.7631Z" stroke="white" stroke-width="2" stroke-linecap="round" stroke-linejoin="round"/>
<path id="Vector_2" d="M25 4L22 11M22 11L16 3L10 11M22 11L16 28L10 11M7 4L10 11" stroke="white" stroke-width="2" stroke-linecap="round" stroke-linejoin="round"/>
</g>
</g>
</svg>
