<svg width="32" height="32" viewBox="0 0 32 32" fill="none" xmlns="http://www.w3.org/2000/svg">
<g id="Favorites icon">
<path id="Vector" d="M24.7694 2H16.5L21.7619 9.01625L24.7694 2ZM7.23063 2L10.2381 9.01625L15.5 2H7.23063ZM16 4.66687L12 10H20L16 4.66687ZM26.4344 3.19125L23.5163 10H30.5L26.4344 3.19125ZM5.56563 3.19125L1.4375 10H8.48375L5.56563 3.19125ZM9.1675 12H1.5L15.425 30H15.4581L9.1675 12ZM22.8325 12L16.5419 30H16.575L30.5 12H22.8325ZM20.5869 12H11.4131L16 25L20.5869 12Z" fill="white"/>
</g>
</svg>
