<svg width="42" height="42" viewBox="0 0 42 42" fill="none" xmlns="http://www.w3.org/2000/svg">
<path d="M37.1875 20.9998H15.5663M7.9345 20.9998H4.8125M7.9345 20.9998C7.9345 19.988 8.33644 19.0176 9.05189 18.3022C9.76734 17.5867 10.7377 17.1848 11.7495 17.1848C12.7613 17.1848 13.7317 17.5867 14.4471 18.3022C15.1626 19.0176 15.5645 19.988 15.5645 20.9998C15.5645 22.0116 15.1626 22.982 14.4471 23.6974C13.7317 24.4129 12.7613 24.8148 11.7495 24.8148C10.7377 24.8148 9.76734 24.4129 9.05189 23.6974C8.33644 22.982 7.9345 22.0116 7.9345 20.9998ZM37.1875 32.5621H27.1285M27.1285 32.5621C27.1285 33.5741 26.7256 34.5455 26.01 35.2612C25.2944 35.9768 24.3238 36.3788 23.3118 36.3788C22.2999 36.3788 21.3296 35.9751 20.6141 35.2597C19.8987 34.5442 19.4967 33.5739 19.4967 32.5621M27.1285 32.5621C27.1285 31.55 26.7256 30.5803 26.01 29.8647C25.2944 29.1491 24.3238 28.7471 23.3118 28.7471C22.2999 28.7471 21.3296 29.149 20.6141 29.8644C19.8987 30.5799 19.4967 31.5503 19.4967 32.5621M19.4967 32.5621H4.8125M37.1875 9.43756H31.7538M24.122 9.43756H4.8125M24.122 9.43756C24.122 8.42576 24.5239 7.4554 25.2394 6.73995C25.9548 6.02449 26.9252 5.62256 27.937 5.62256C28.438 5.62256 28.9341 5.72124 29.3969 5.91296C29.8598 6.10468 30.2804 6.38569 30.6346 6.73995C30.9889 7.0942 31.2699 7.51476 31.4616 7.97762C31.6533 8.44048 31.752 8.93657 31.752 9.43756C31.752 9.93855 31.6533 10.4346 31.4616 10.8975C31.2699 11.3604 30.9889 11.7809 30.6346 12.1352C30.2804 12.4894 29.8598 12.7704 29.3969 12.9622C28.9341 13.1539 28.438 13.2526 27.937 13.2526C26.9252 13.2526 25.9548 12.8506 25.2394 12.1352C24.5239 11.4197 24.122 10.4494 24.122 9.43756Z" stroke="white" stroke-width="2.625" stroke-miterlimit="10" stroke-linecap="round"/>
</svg>
