<svg width="18" height="18" viewBox="0 0 18 18" fill="none" xmlns="http://www.w3.org/2000/svg">
<path d="M1.00016 13.8001V4.20022C1.00016 3.08024 1.00016 2.02199 1.00016 1.50002C1.00016 1.00056 1.00577 1.00097 1.50019 1.00023C1.99448 0.999698 3.08014 1.00026 4.20013 1.00026H13.8C14.92 1.00026 16.0287 1.00014 16.5001 1.00021C17 1.00021 17 1.00021 17 1.50013C17 1.9409 17 3.07924 17 4.19722V13.8041C17 14.9221 17 16.1249 17 16.4999C17 17.0001 17 17.0001 16.5001 17.0001C16.5001 17.0001 14.921 17.0001 13.803 17.0001H4.19713C3.07914 17.0001 1.99996 17.0001 1.50006 17.0001C1.00016 17.0001 1.00016 17.0001 1 16.4999C1 16.0865 1.00016 14.9201 1.00016 13.8001Z" stroke="#561B0B" stroke-width="2" stroke-linecap="round" stroke-linejoin="round"/>
</svg>

