<svg width="26" height="26" viewBox="0 0 26 26" fill="none" xmlns="http://www.w3.org/2000/svg">
<g id="Search icon">
<path id="Vector" d="M16.3429 0C13.7816 0 11.3253 1.01745 9.51423 2.82851C7.70316 4.63958 6.68571 7.09591 6.68571 9.65714C6.68571 12.0491 7.56228 14.248 9.00343 15.9417L8.60228 16.3429H7.42857L0 23.7714L2.22857 26L9.65714 18.5714V17.3977L10.0583 16.9966C11.8106 18.4923 14.0389 19.3141 16.3429 19.3143C18.9041 19.3143 21.3604 18.2968 23.1715 16.4858C24.9826 14.6747 26 12.2184 26 9.65714C26 7.09591 24.9826 4.63958 23.1715 2.82851C21.3604 1.01745 18.9041 0 16.3429 0ZM16.3429 2.97143C20.0571 2.97143 23.0286 5.94286 23.0286 9.65714C23.0286 13.3714 20.0571 16.3429 16.3429 16.3429C12.6286 16.3429 9.65714 13.3714 9.65714 9.65714C9.65714 5.94286 12.6286 2.97143 16.3429 2.97143Z" fill="#561B0B"/>
</g>
</svg>
