<svg width="28" height="28" viewBox="0 0 28 28" fill="none" xmlns="http://www.w3.org/2000/svg">
<path id="Vector" d="M11.2668 24.6665C11.2668 26.1332 10.0668 27.3332 8.6001 27.3332C7.13343 27.3332 5.93343 26.1332 5.93343 24.6665C5.93343 23.1998 7.13343 21.9998 8.6001 21.9998C10.0668 21.9998 11.2668 23.1998 11.2668 24.6665ZM21.9334 21.9998C20.4668 21.9998 19.2668 23.1998 19.2668 24.6665C19.2668 26.1332 20.4668 27.3332 21.9334 27.3332C23.4001 27.3332 24.6001 26.1332 24.6001 24.6665C24.6001 23.1998 23.4001 21.9998 21.9334 21.9998ZM8.86676 17.7332V17.5998L10.0668 15.3332H19.9334C20.8668 15.3332 21.8001 14.7998 22.2001 13.9998L27.4001 4.6665L25.1334 3.33317L19.9334 12.6665H10.6001L5.0001 0.666504H0.600098V3.33317H3.26676L8.06676 13.4665L6.2001 16.6665C6.06676 17.0665 5.93343 17.4665 5.93343 17.9998C5.93343 19.4665 7.13343 20.6665 8.6001 20.6665H24.6001V17.9998H9.13343C9.0001 17.9998 8.86676 17.8665 8.86676 17.7332ZM23.2668 2.73317L21.4001 0.866504L15.0001 7.2665L11.5334 3.79984L9.66677 5.6665L15.0001 10.9998L23.2668 2.73317Z" fill="#A20909"/>
</svg>
