<?xml version="1.0" encoding="utf-8"?>
<svg viewBox="0 0 60 60" fill="none" xmlns="http://www.w3.org/2000/svg">
  <defs>
    <clipPath id="clip0_0_1">
      <rect width="1280" height="1012" fill="white" transform="translate(-794 -286)"/>
    </clipPath>
  </defs>
  <rect width="60" height="60" transform="matrix(0.9999999999999999, 0, 0, 0.9999999999999999, 0, -4.440892098500626e-16)"/>
  <g clip-path="url(#clip0_0_1)" transform="matrix(0.9999999999999999, 0, 0, 0.9999999999999999, 0, -4.440892098500626e-16)">
    <rect width="1280" height="1012" transform="translate(-794 -286)"/>
    <circle cx="30" cy="30" r="24" fill="#A20909"/>
    <mask id="path-2-outside-1_0_1" maskUnits="userSpaceOnUse" x="17.5" y="18.5" width="25" height="23" fill="black">
      <rect fill="white" x="17.5" y="18.5" width="25" height="23"/>
      <path d="M24.15 29.7C21.05 35.3 18.5 40 18.5 40.2C18.5 40.35 19.7 40.5 21.15 40.5H23.8L27.7 33.5C29.85 29.65 31.75 26.5 31.95 26.5C32.25 26.5 39 38.2 39 38.75C39 38.9 38.55 39 38.05 39C37.35 39 36.4 37.75 34.7 34.75C33.4 32.4 32 30.5 31.65 30.5C30.65 30.5 30.8 30.8 33.6 35.85L36.15 40.5H38.85C40.3 40.5 41.5 40.35 41.5 40.2C41.5 39.65 30.3 19.55 30 19.55C29.85 19.55 27.2 24.1 24.15 29.7ZM30.7 23.75C30.85 24.2 29.25 27.6 26.95 31.75C23.95 37.15 22.65 39 21.95 39C21.45 39 21 38.9 21 38.75C21 38.2 29.7 23 30.05 23C30.25 23 30.5 23.35 30.7 23.75Z"/>
    </mask>
    <path d="M24.15 29.7C21.05 35.3 18.5 40 18.5 40.2C18.5 40.35 19.7 40.5 21.15 40.5H23.8L27.7 33.5C29.85 29.65 31.75 26.5 31.95 26.5C32.25 26.5 39 38.2 39 38.75C39 38.9 38.55 39 38.05 39C37.35 39 36.4 37.75 34.7 34.75C33.4 32.4 32 30.5 31.65 30.5C30.65 30.5 30.8 30.8 33.6 35.85L36.15 40.5H38.85C40.3 40.5 41.5 40.35 41.5 40.2C41.5 39.65 30.3 19.55 30 19.55C29.85 19.55 27.2 24.1 24.15 29.7ZM30.7 23.75C30.85 24.2 29.25 27.6 26.95 31.75C23.95 37.15 22.65 39 21.95 39C21.45 39 21 38.9 21 38.75C21 38.2 29.7 23 30.05 23C30.25 23 30.5 23.35 30.7 23.75Z" fill="white"/>
    <path d="M24.15 29.7C21.05 35.3 18.5 40 18.5 40.2C18.5 40.35 19.7 40.5 21.15 40.5H23.8L27.7 33.5C29.85 29.65 31.75 26.5 31.95 26.5C32.25 26.5 39 38.2 39 38.75C39 38.9 38.55 39 38.05 39C37.35 39 36.4 37.75 34.7 34.75C33.4 32.4 32 30.5 31.65 30.5C30.65 30.5 30.8 30.8 33.6 35.85L36.15 40.5H38.85C40.3 40.5 41.5 40.35 41.5 40.2C41.5 39.65 30.3 19.55 30 19.55C29.85 19.55 27.2 24.1 24.15 29.7ZM30.7 23.75C30.85 24.2 29.25 27.6 26.95 31.75C23.95 37.15 22.65 39 21.95 39C21.45 39 21 38.9 21 38.75C21 38.2 29.7 23 30.05 23C30.25 23 30.5 23.35 30.7 23.75Z" stroke="white" stroke-width="0.4" mask="url(#path-2-outside-1_0_1)"/>
  </g>
</svg>